<?xml version="1.0" standalone="no"?><!DOCTYPE svg PUBLIC "-//W3C//DTD SVG 1.1//EN" "http://www.w3.org/Graphics/SVG/1.1/DTD/svg11.dtd"><svg t="1652140527654" class="icon" viewBox="0 0 1024 1024" version="1.1" xmlns="http://www.w3.org/2000/svg" p-id="688" xmlns:xlink="http://www.w3.org/1999/xlink" width="200" height="200"><defs><style type="text/css"></style></defs><path d="M512 64C759.04 64 960 264.96 960 512S759.04 960 512 960s-448-200.96-448-448 200.96-448 448-448z m0 832.00000001c211.74400001 0 384.00000001-172.256 384.00000001-384.00000001s-172.256-384.00000001-384.00000001-384.00000001-384.00000001 172.256-384.00000001 384.00000001 172.256 384.00000001 384.00000001 384.00000001z" p-id="689"></path><path d="M291.04 522.848c0.03299999 0.127 0.19299999 0.256 0.257 0.383 1.53600001 3.616 3.648 7.072 6.592 10.048 0.032 0.033 0.063 0.033 0.096 0.06400001 0.033 0.032 0.033 0.063 0.064 0.09599999L456.96 692.799c12.48 12.48 32.704 12.575 45.248 0.063 12.51200001-12.48 12.54300001-32.736 0.063-45.248l-103.329-103.617L704 543.997c17.665 0 32-14.336 32.00000001-32s-14.337-32.001-32.00000001-32.001l-306.753 0L503.36 375.036c12.577-12.447 12.673-32.672 0.257-45.248-6.24-6.336-14.496-9.504-22.752-9.504-8.128 0-16.255 3.103-22.496 9.248l-160.256 158.495c-9.44 9.38-11.84 23.20599999-7.072 34.82z" p-id="690"></path></svg>